<svg width="44" height="54" viewBox="0 0 44 54" fill="none" xmlns="http://www.w3.org/2000/svg">
<path d="M30.2703 33.0028L36.1118 29.7696L37.7803 28.8466L43.9288 25.4376V23.2575C43.9285 21.9008 43.5642 20.5689 42.8736 19.3996C42.183 18.2303 41.1911 17.2663 40.0008 16.6073L25.0833 8.3512C24.2799 7.90695 23.3763 7.67383 22.4574 7.67383C21.5386 7.67383 20.635 7.90695 19.8316 8.3512L3.76413 17.2405C2.92615 17.704 2.22676 18.3809 1.73752 19.2019C1.23892 20.0349 0.974715 20.9863 0.972656 21.9562V39.3794C0.97308 40.3416 1.23158 41.2863 1.72142 42.1156C2.21125 42.9449 2.91462 43.6288 3.75874 44.0964L7.12521 45.9572V30.7423C7.12281 30.4624 7.22782 30.1922 7.41877 29.9869C7.58871 29.8006 7.81704 29.6771 8.06649 29.6366C8.31594 29.5962 8.57179 29.6412 8.79229 29.7642L14.6365 33.0028C15.1408 33.2823 15.5612 33.6907 15.8545 34.1859C16.1478 34.6811 16.3032 35.2452 16.3049 35.8201V51.0351L19.8249 52.9844C20.6287 53.43 21.5335 53.6637 22.4534 53.6632C23.3737 53.6637 24.279 53.43 25.0833 52.9844L28.6033 51.0364L30.2703 50.1134L36.1118 46.8815L37.7803 45.9572L41.1467 44.0964C41.9903 43.6285 42.693 42.9444 43.1821 42.1151C43.6712 41.2858 43.929 40.3413 43.9288 39.3794V35.898L37.7803 39.3083L36.1186 40.2246L30.2771 43.4578L28.61 44.3808V33.9164L30.2703 33.0028Z" fill="#5BC43A"/>
<path d="M28.6055 51.0383V51.0366" stroke="#FE6C52" stroke-width="2.42105" stroke-miterlimit="10"/>
<path d="M37.7812 22.1837V22.1763" stroke="#FE6C52" stroke-width="2.42105" stroke-miterlimit="10"/>
<path d="M43.9303 27.3398V31.7577C43.9306 32.4359 43.7486 33.1019 43.4034 33.6865C43.0582 34.2711 42.5622 34.7529 41.967 35.0821L37.7818 37.3991L36.1201 38.3221L30.2786 41.5553L30.043 41.6894V35.0325L30.2786 34.8983L36.1201 31.6611L37.7885 30.7381L43.9303 27.3398Z" fill="#5BC43A"/>
<path d="M18.1719 0.213117L25.539 1.22601L28.0302 0.0870072C28.1631 0.0260501 28.3082 -0.00360568 28.4544 0.00034955C28.6006 0.00430478 28.7439 0.0417624 28.8732 0.109812L32.4847 2.01218L23.5973 5.59689L22.8364 2.95129L25.7249 2.51796L22.314 2.44014L18.1719 0.213117Z" fill="#5BC43A"/>
<path d="M14.8761 37.1616V44.798C10.0085 43.2398 5.86028 39.9992 3.18033 35.6613C0.500372 31.3234 -0.534777 26.1739 0.261726 21.1424C1.05823 16.1108 3.63391 11.5287 7.52384 8.22311C11.4138 4.91752 16.3617 3.10625 21.4744 3.11625C21.7635 3.11625 22.0516 3.12162 22.3389 3.13235C17.6989 3.32765 13.3137 5.29976 10.0975 8.63751C6.88124 11.9753 5.08229 16.421 5.07567 21.0479V21.0935C5.07658 24.4089 5.99093 27.6605 7.71907 30.4939C9.44722 33.3272 11.9228 35.6336 14.8761 37.1616Z" fill="url(#paint0_linear_2901_7148)"/>
<defs>
<linearGradient id="paint0_linear_2901_7148" x1="24.1178" y1="13.0534" x2="7.65906" y2="30.2466" gradientUnits="userSpaceOnUse">
<stop stop-color="#5BC43A"/>
<stop offset="1" stop-color="#0B0B0B"/>
</linearGradient>
</defs>
</svg>
