<svg width="276" height="89" viewBox="0 0 276 89" fill="none" xmlns="http://www.w3.org/2000/svg">
<path d="M47.8878 49.3656L52.5711 46.7807L53.9087 46.0427L58.838 43.3173V41.5743C58.8378 40.4896 58.5458 39.4247 57.9921 38.4899C57.4384 37.5551 56.6432 36.7843 55.6889 36.2575L43.7293 29.6568C43.0852 29.3016 42.3607 29.1152 41.6241 29.1152C40.8875 29.1152 40.163 29.3016 39.5189 29.6568L26.6374 36.7638C25.9656 37.1343 25.4049 37.6754 25.0126 38.3319C24.6129 38.9979 24.4011 39.7585 24.3994 40.5339V54.4636C24.3998 55.2329 24.607 55.9882 24.9997 56.6512C25.3924 57.3142 25.9563 57.8609 26.6331 58.2348L29.332 59.7225V47.5583C29.3301 47.3345 29.4143 47.1185 29.5674 46.9544C29.7036 46.8054 29.8867 46.7067 30.0867 46.6743C30.2866 46.642 30.4918 46.678 30.6685 46.7764L35.3539 49.3656C35.7582 49.589 36.0953 49.9155 36.3304 50.3114C36.5655 50.7073 36.6902 51.1583 36.6915 51.618V63.7822L39.5135 65.3407C40.158 65.697 40.8834 65.8838 41.6209 65.8834C42.3587 65.8838 43.0845 65.697 43.7293 65.3407L46.5513 63.7833L47.8878 63.0454L52.5711 60.4615L53.9087 59.7225L56.6076 58.2348C57.2839 57.8607 57.8473 57.3138 58.2394 56.6508C58.6316 55.9878 58.8382 55.2326 58.838 54.4636V51.6802L53.9087 54.4067L52.5765 55.1393L47.8932 57.7243L46.5567 58.4622V50.096L47.8878 49.3656Z" fill="#5BC43A"/>
<path d="M46.5527 63.7841V63.7834" stroke="#FE6C52" stroke-width="0.568061" stroke-miterlimit="10"/>
<path d="M53.9092 40.7154V40.7097" stroke="#FE6C52" stroke-width="0.568061" stroke-miterlimit="10"/>
<path d="M58.8393 44.8379V48.3699C58.8395 48.9122 58.6936 49.4446 58.4168 49.912C58.1401 50.3793 57.7425 50.7646 57.2653 51.0278L53.9099 52.8802L52.5777 53.6181L47.8945 56.203L47.7056 56.3103V50.9881L47.8945 50.8809L52.5777 48.2927L53.9153 47.5548L58.8393 44.8379Z" fill="#5BC43A"/>
<path d="M38.188 23.1501L44.0944 23.9599L46.0916 23.0493C46.1981 23.0006 46.3144 22.9769 46.4316 22.98C46.5488 22.9832 46.6637 23.0131 46.7674 23.0675L49.6628 24.5885L42.5376 27.4544L41.9276 25.3393L44.2434 24.9928L41.5088 24.9306L38.188 23.1501Z" fill="#5BC43A"/>
<path d="M35.5456 52.6905V58.7957C31.6431 57.5499 28.3174 54.9592 26.1689 51.491C24.0203 48.0229 23.1904 43.9059 23.829 39.8832C24.4675 35.8605 26.5325 32.1972 29.6511 29.5544C32.7697 26.9116 36.7366 25.4635 40.8355 25.4715C41.0673 25.4715 41.2983 25.4758 41.5286 25.4843C37.8087 25.6405 34.2929 27.2172 31.7144 29.8857C29.1359 32.5542 27.6937 36.1085 27.6884 39.8077V39.8441C27.6891 42.4948 28.4222 45.0944 29.8076 47.3597C31.1931 49.6249 33.1779 51.4689 35.5456 52.6905Z" fill="url(#paint0_linear_986_8951)"/>
<path d="M68.9043 40.8206C68.1128 40.8206 67.4504 40.629 66.9172 40.2458C66.384 39.8542 66.0132 39.3376 65.8049 38.6961C65.5966 38.0546 65.5758 37.3547 65.7424 36.5965C65.8674 36.0133 66.0674 35.5259 66.3423 35.1344C66.6256 34.7428 66.963 34.422 67.3546 34.1721C67.7545 33.9221 68.1919 33.7263 68.6668 33.5847C69.15 33.4347 69.6499 33.3222 70.1665 33.2473L74.0782 32.6349C74.1615 32.26 74.1281 31.935 73.9782 31.6601C73.8365 31.3768 73.5783 31.1602 73.2033 31.0102C72.8284 30.8519 72.3494 30.7728 71.7662 30.7728C71.4662 30.7728 71.1455 30.7978 70.8039 30.8478C70.4706 30.8894 70.1207 30.9561 69.7541 31.0477C69.3875 31.131 69.0084 31.2394 68.6168 31.3727C68.2336 31.4976 67.8378 31.6476 67.4296 31.8226L68.017 28.5483C68.3169 28.4483 68.6585 28.3525 69.0417 28.2608C69.425 28.1608 69.8291 28.0692 70.254 27.9859C70.6789 27.9026 71.1121 27.8359 71.5537 27.7859C72.0036 27.7359 72.441 27.7109 72.8659 27.7109C74.0657 27.7109 75.053 27.9109 75.8278 28.3108C76.6026 28.7107 77.14 29.2814 77.4399 30.0229C77.7399 30.7561 77.7774 31.6309 77.5524 32.6474C77.4691 33.064 77.3816 33.4889 77.29 33.9221C77.1983 34.347 77.1025 34.7928 77.0025 35.2593L76.7776 36.3091C76.6443 36.934 76.5026 37.5922 76.3527 38.2837C76.211 38.9752 76.0527 39.7209 75.8778 40.5207H72.6535L72.8159 38.8586H72.5285C72.2202 39.3001 71.8786 39.6667 71.5037 39.9583C71.1371 40.2416 70.7372 40.4541 70.304 40.5957C69.8707 40.7457 69.4042 40.8206 68.9043 40.8206ZM70.6414 37.9338C70.9413 37.9338 71.2413 37.8713 71.5412 37.7463C71.8495 37.613 72.1411 37.4255 72.416 37.1839C72.6993 36.9423 72.9576 36.6549 73.1908 36.3216L73.6158 34.322C73.4991 34.4053 73.3575 34.4887 73.1908 34.572C73.0242 34.647 72.7951 34.7261 72.5035 34.8094C72.2119 34.8844 71.8161 34.9761 71.3162 35.0844C70.9913 35.1594 70.6955 35.2468 70.4289 35.3468C70.1623 35.4468 69.9415 35.5884 69.7666 35.7717C69.5916 35.955 69.475 36.1925 69.4167 36.4841C69.3333 36.9423 69.4125 37.3006 69.6541 37.5588C69.8957 37.8088 70.2248 37.9338 70.6414 37.9338Z" fill="#0D1722"/>
<path d="M77.3396 40.5207C77.6312 39.6126 77.9145 38.7211 78.1894 37.8463C78.4643 36.9631 78.7434 36.0758 79.0267 35.1843L79.5641 33.5222C79.8474 32.6141 80.1348 31.7018 80.4264 30.7853C80.718 29.8605 81.0096 28.9482 81.3012 28.0484H85.3379C85.4545 28.6982 85.567 29.3439 85.6753 29.9855C85.7919 30.6187 85.9086 31.2643 86.0252 31.9225L86.6876 35.6592H86.9625L89.1371 31.9475C89.5203 31.281 89.9036 30.6228 90.2868 29.973C90.6701 29.3231 91.045 28.6816 91.4116 28.0484H95.5232C95.4399 28.9315 95.3482 29.8438 95.2483 30.7853C95.1566 31.7184 95.065 32.6349 94.9733 33.5347L94.7984 35.2843C94.715 36.1258 94.6276 36.9923 94.5359 37.8838C94.4443 38.7669 94.3526 39.6459 94.261 40.5207H90.7992C90.8825 39.7375 90.9658 38.9419 91.0492 38.1337C91.1325 37.3172 91.2116 36.5341 91.2866 35.7842L91.599 32.8099H91.3366L89.612 35.9967C89.2037 36.7465 88.7955 37.4964 88.3872 38.2462C87.9873 38.996 87.5791 39.7542 87.1625 40.5207H84.5505C84.4339 39.7709 84.3173 39.0127 84.2006 38.2462C84.084 37.4797 83.9715 36.7299 83.8632 35.9967L83.3633 32.8099H83.1008L82.201 35.7342C81.9511 36.5424 81.7011 37.3464 81.4512 38.1462C81.2096 38.9377 80.968 39.7292 80.7264 40.5207H77.3396Z" fill="#0D1722"/>
<path d="M99.4651 40.8206C98.6736 40.8206 98.0113 40.629 97.4781 40.2458C96.9448 39.8542 96.5741 39.3376 96.3658 38.6961C96.1575 38.0546 96.1367 37.3547 96.3033 36.5965C96.4283 36.0133 96.6282 35.5259 96.9032 35.1344C97.1865 34.7428 97.5239 34.422 97.9155 34.1721C98.3154 33.9221 98.7528 33.7263 99.2277 33.5847C99.7109 33.4347 100.211 33.3222 100.727 33.2473L104.639 32.6349C104.722 32.26 104.689 31.935 104.539 31.6601C104.397 31.3768 104.139 31.1602 103.764 31.0102C103.389 30.8519 102.91 30.7728 102.327 30.7728C102.027 30.7728 101.706 30.7978 101.365 30.8478C101.031 30.8894 100.682 30.9561 100.315 31.0477C99.9484 31.131 99.5693 31.2394 99.1777 31.3727C98.7944 31.4976 98.3987 31.6476 97.9904 31.8226L98.5778 28.5483C98.8778 28.4483 99.2194 28.3525 99.6026 28.2608C99.9859 28.1608 100.39 28.0692 100.815 27.9859C101.24 27.9026 101.673 27.8359 102.115 27.7859C102.564 27.7359 103.002 27.7109 103.427 27.7109C104.627 27.7109 105.614 27.9109 106.389 28.3108C107.163 28.7107 107.701 29.2814 108.001 30.0229C108.301 30.7561 108.338 31.6309 108.113 32.6474C108.03 33.064 107.942 33.4889 107.851 33.9221C107.759 34.347 107.663 34.7928 107.563 35.2593L107.338 36.3091C107.205 36.934 107.064 37.5922 106.914 38.2837C106.772 38.9752 106.614 39.7209 106.439 40.5207H103.214L103.377 38.8586H103.089C102.781 39.3001 102.439 39.6667 102.065 39.9583C101.698 40.2416 101.298 40.4541 100.865 40.5957C100.432 40.7457 99.965 40.8206 99.4651 40.8206ZM101.202 37.9338C101.502 37.9338 101.802 37.8713 102.102 37.7463C102.41 37.613 102.702 37.4255 102.977 37.1839C103.26 36.9423 103.518 36.6549 103.752 36.3216L104.177 34.322C104.06 34.4053 103.918 34.4887 103.752 34.572C103.585 34.647 103.356 34.7261 103.064 34.8094C102.773 34.8844 102.377 34.9761 101.877 35.0844C101.552 35.1594 101.256 35.2468 100.99 35.3468C100.723 35.4468 100.502 35.5884 100.327 35.7717C100.152 35.955 100.036 36.1925 99.9775 36.4841C99.8942 36.9423 99.9734 37.3006 100.215 37.5588C100.457 37.8088 100.786 37.9338 101.202 37.9338Z" fill="#0D1722"/>
<path d="M107.501 45.4322C107.692 44.5407 107.88 43.6575 108.063 42.7827C108.246 41.9079 108.45 40.954 108.675 39.9208L109.95 33.8721C110.142 32.9723 110.337 32.0392 110.537 31.0727C110.746 30.0979 110.962 29.0898 111.187 28.0484L114.499 27.8609L114.274 29.5855H114.587C114.903 29.2023 115.253 28.869 115.636 28.5858C116.02 28.3025 116.428 28.0859 116.861 27.9359C117.294 27.7859 117.744 27.7109 118.211 27.7109C119.369 27.7109 120.281 28.0442 120.948 28.7107C121.614 29.3689 122.043 30.2396 122.235 31.3227C122.427 32.4058 122.393 33.5764 122.135 34.8344C121.885 36.0175 121.498 37.0631 120.973 37.9713C120.448 38.8711 119.798 39.5792 119.023 40.0958C118.257 40.604 117.382 40.8581 116.399 40.8581C115.899 40.8581 115.416 40.7873 114.949 40.6457C114.491 40.5124 114.074 40.3124 113.699 40.0458C113.333 39.7792 113.033 39.4501 112.799 39.0585H112.574L112.349 40.1208C112.158 41.0456 111.975 41.9204 111.8 42.7452C111.625 43.5701 111.441 44.4282 111.25 45.3197L107.501 45.4322ZM115.324 37.6338C115.882 37.6338 116.365 37.5005 116.774 37.2339C117.182 36.959 117.515 36.5882 117.773 36.1216C118.04 35.6551 118.236 35.1302 118.361 34.547C118.494 33.9138 118.511 33.3181 118.411 32.7599C118.319 32.2016 118.102 31.7517 117.761 31.4102C117.419 31.0602 116.953 30.8853 116.361 30.8853C116.07 30.8853 115.786 30.9394 115.511 31.0477C115.236 31.1477 114.978 31.3018 114.736 31.5101C114.495 31.7101 114.262 31.9475 114.037 32.2225L113.162 36.3716C113.312 36.6549 113.495 36.8882 113.712 37.0714C113.928 37.2547 114.17 37.3964 114.437 37.4964C114.703 37.588 114.999 37.6338 115.324 37.6338Z" fill="#0D1722"/>
<path d="M129.684 40.7957C129.218 40.7957 128.705 40.7582 128.147 40.6832C127.597 40.6165 127.06 40.5124 126.535 40.3707C126.01 40.2208 125.556 40.0333 125.173 39.8084L126.023 36.9215C126.464 37.1631 126.885 37.3506 127.285 37.4839C127.693 37.6088 128.081 37.7005 128.447 37.7588C128.814 37.8088 129.151 37.8338 129.459 37.8338C130.143 37.8338 130.747 37.7171 131.272 37.4839C131.805 37.2506 132.242 36.9006 132.584 36.4341C132.925 35.9592 133.154 35.3676 133.271 34.6595L133.434 33.8096C133.559 33.1265 133.496 32.5599 133.246 32.11C133.005 31.6601 132.621 31.3268 132.096 31.1102C131.58 30.8853 130.963 30.7728 130.247 30.7728C129.914 30.7728 129.564 30.8061 129.197 30.8728C128.83 30.9311 128.472 31.0227 128.122 31.1477C127.781 31.2643 127.464 31.4102 127.172 31.5851L127.585 28.3483C127.818 28.24 128.097 28.14 128.422 28.0484C128.747 27.9484 129.101 27.8734 129.484 27.8234C129.868 27.7651 130.263 27.7359 130.672 27.7359C132.163 27.7359 133.425 28.0359 134.458 28.6357C135.5 29.2356 136.237 30.0813 136.67 31.1727C137.104 32.2558 137.166 33.5305 136.858 34.9969C136.608 36.155 136.179 37.1714 135.571 38.0462C134.962 38.9127 134.167 39.5876 133.184 40.0708C132.209 40.554 131.042 40.7957 129.684 40.7957ZM127.86 35.3468L128.322 33.1348C128.889 33.1348 129.464 33.1348 130.047 33.1348C130.638 33.1348 131.347 33.1348 132.171 33.1348H134.208L133.734 35.3468H131.709C131.176 35.3468 130.693 35.3468 130.259 35.3468C129.826 35.3468 129.414 35.3468 129.022 35.3468C128.639 35.3468 128.251 35.3468 127.86 35.3468Z" fill="#0D1722"/>
<path d="M137.498 40.5207C137.689 39.6292 137.872 38.7669 138.047 37.9338C138.222 37.1006 138.422 36.1633 138.647 35.1219L138.935 33.7222C139.101 32.9473 139.251 32.2433 139.385 31.6101C139.526 30.9769 139.655 30.3729 139.772 29.798C139.897 29.2231 140.022 28.6399 140.147 28.0484L143.909 27.9359C143.717 28.8274 143.53 29.7063 143.346 30.5728C143.163 31.431 142.971 32.3266 142.771 33.2598L142.222 35.8592C142.038 36.7007 141.867 37.488 141.709 38.2212C141.559 38.9544 141.401 39.7209 141.234 40.5207H137.498ZM145.721 40.5207C145.438 40.0125 145.15 39.5043 144.858 38.996C144.567 38.4795 144.279 37.9713 143.996 37.4714L142.909 35.5343H141.972L142.497 33.0598H143.459L144.996 31.2977C145.471 30.7561 145.946 30.2146 146.421 29.673C146.896 29.1315 147.37 28.5899 147.845 28.0484H152.407C151.682 28.7982 150.961 29.5439 150.245 30.2854C149.537 31.0269 148.82 31.7809 148.095 32.5474L145.996 34.7344L145.433 33.0848L147.171 35.9592C147.654 36.709 148.137 37.4672 148.62 38.2337C149.103 39.0002 149.587 39.7625 150.07 40.5207H145.721Z" fill="#0D1722"/>
<path d="M157.616 40.8082C156.108 40.8082 154.842 40.5082 153.817 39.9083C152.801 39.3001 152.084 38.4503 151.668 37.3589C151.251 36.2675 151.197 34.9886 151.505 33.5222C151.747 32.3641 152.184 31.3518 152.817 30.4853C153.451 29.6105 154.259 28.9315 155.242 28.4483C156.225 27.9651 157.366 27.7234 158.666 27.7234C159.183 27.7234 159.687 27.7609 160.178 27.8359C160.678 27.9109 161.157 28.0234 161.615 28.1733C162.074 28.315 162.511 28.4941 162.928 28.7107L161.99 31.935C161.59 31.6518 161.203 31.4351 160.828 31.2852C160.462 31.1352 160.107 31.0311 159.766 30.9727C159.433 30.9144 159.116 30.8853 158.816 30.8853C157.975 30.8853 157.225 31.1435 156.567 31.6601C155.917 32.1683 155.479 32.9057 155.254 33.8721C155.079 34.6803 155.096 35.3718 155.304 35.9467C155.521 36.5216 155.892 36.9631 156.417 37.2714C156.941 37.5713 157.579 37.7213 158.329 37.7213C158.654 37.7213 158.97 37.6921 159.278 37.6338C159.587 37.5755 159.883 37.488 160.166 37.3714C160.457 37.2464 160.741 37.0964 161.016 36.9215L160.541 40.1958C160.316 40.3124 160.049 40.4166 159.741 40.5082C159.441 40.5999 159.112 40.6707 158.754 40.7207C158.395 40.779 158.016 40.8082 157.616 40.8082Z" fill="#0D1722"/>
<path d="M162.225 40.5207C162.416 39.6292 162.6 38.7669 162.775 37.9338C162.95 37.0923 163.145 36.155 163.362 35.1219L163.624 33.8721C163.808 33.039 163.966 32.2975 164.099 31.6476C164.241 30.9894 164.37 30.3729 164.487 29.798C164.612 29.2231 164.737 28.6399 164.862 28.0484H176.472C176.347 28.6399 176.222 29.2231 176.097 29.798C175.98 30.3729 175.851 30.9894 175.709 31.6476C175.576 32.2975 175.418 33.039 175.234 33.8721L174.972 35.1219C174.755 36.155 174.56 37.0923 174.385 37.9338C174.21 38.7669 174.026 39.6292 173.835 40.5207H170.098C170.29 39.6292 170.473 38.7669 170.648 37.9338C170.831 37.0923 171.031 36.155 171.248 35.1219L171.51 33.8721C171.677 33.1223 171.819 32.4558 171.935 31.8726C172.06 31.2893 172.177 30.7436 172.285 30.2354C172.393 29.7188 172.506 29.1856 172.623 28.6357L173.635 30.9727H166.474L168.473 28.6357C168.357 29.1856 168.244 29.7188 168.136 30.2354C168.028 30.7436 167.911 31.2893 167.786 31.8726C167.669 32.4474 167.528 33.114 167.361 33.8721L167.099 35.1094C166.882 36.1508 166.682 37.0923 166.499 37.9338C166.324 38.7669 166.141 39.6292 165.949 40.5207H162.225Z" fill="#0D1722"/>
<path d="M175.174 45.4322C175.366 44.5407 175.553 43.6575 175.736 42.7827C175.92 41.9079 176.124 40.954 176.349 39.9208L177.623 33.8721C177.815 32.9723 178.011 32.0392 178.211 31.0727C178.419 30.0979 178.636 29.0898 178.861 28.0484L182.172 27.8609L181.947 29.5855H182.26C182.577 29.2023 182.926 28.869 183.31 28.5858C183.693 28.3025 184.101 28.0859 184.534 27.9359C184.968 27.7859 185.418 27.7109 185.884 27.7109C187.042 27.7109 187.955 28.0442 188.621 28.7107C189.288 29.3689 189.717 30.2396 189.908 31.3227C190.1 32.4058 190.067 33.5764 189.808 34.8344C189.558 36.0175 189.171 37.0631 188.646 37.9713C188.121 38.8711 187.471 39.5792 186.696 40.0958C185.93 40.604 185.055 40.8581 184.072 40.8581C183.572 40.8581 183.089 40.7873 182.622 40.6457C182.164 40.5124 181.748 40.3124 181.373 40.0458C181.006 39.7792 180.706 39.4501 180.473 39.0585H180.248L180.023 40.1208C179.831 41.0456 179.648 41.9204 179.473 42.7452C179.298 43.5701 179.115 44.4282 178.923 45.3197L175.174 45.4322ZM182.997 37.6338C183.555 37.6338 184.039 37.5005 184.447 37.2339C184.855 36.959 185.188 36.5882 185.447 36.1216C185.713 35.6551 185.909 35.1302 186.034 34.547C186.167 33.9138 186.184 33.3181 186.084 32.7599C185.992 32.2016 185.776 31.7517 185.434 31.4102C185.093 31.0602 184.626 30.8853 184.035 30.8853C183.743 30.8853 183.46 30.9394 183.185 31.0477C182.91 31.1477 182.651 31.3018 182.41 31.5101C182.168 31.7101 181.935 31.9475 181.71 32.2225L180.835 36.3716C180.985 36.6549 181.168 36.8882 181.385 37.0714C181.602 37.2547 181.843 37.3964 182.11 37.4964C182.377 37.588 182.672 37.6338 182.997 37.6338Z" fill="#0D1722"/>
<path d="M194.529 40.7957C194.062 40.7957 193.55 40.7582 192.992 40.6832C192.442 40.6165 191.905 40.5124 191.38 40.3707C190.855 40.2208 190.401 40.0333 190.017 39.8084L190.867 36.9215C191.309 37.1631 191.73 37.3506 192.129 37.4839C192.538 37.6088 192.925 37.7005 193.292 37.7588C193.658 37.8088 193.996 37.8338 194.304 37.8338C194.987 37.8338 195.591 37.7171 196.116 37.4839C196.649 37.2506 197.087 36.9006 197.428 36.4341C197.77 35.9592 197.999 35.3676 198.116 34.6595L198.278 33.8096C198.403 33.1265 198.341 32.5599 198.091 32.11C197.849 31.6601 197.466 31.3268 196.941 31.1102C196.424 30.8853 195.808 30.7728 195.091 30.7728C194.758 30.7728 194.408 30.8061 194.042 30.8728C193.675 30.9311 193.317 31.0227 192.967 31.1477C192.625 31.2643 192.309 31.4102 192.017 31.5851L192.429 28.3483C192.663 28.24 192.942 28.14 193.267 28.0484C193.592 27.9484 193.946 27.8734 194.329 27.8234C194.712 27.7651 195.108 27.7359 195.516 27.7359C197.008 27.7359 198.27 28.0359 199.303 28.6357C200.344 29.2356 201.082 30.0813 201.515 31.1727C201.948 32.2558 202.011 33.5305 201.702 34.9969C201.452 36.155 201.023 37.1714 200.415 38.0462C199.807 38.9127 199.011 39.5876 198.028 40.0708C197.053 40.554 195.887 40.7957 194.529 40.7957ZM192.704 35.3468L193.167 33.1348C193.733 33.1348 194.308 33.1348 194.891 33.1348C195.483 33.1348 196.191 33.1348 197.016 33.1348H199.053L198.578 35.3468H196.554C196.02 35.3468 195.537 35.3468 195.104 35.3468C194.671 35.3468 194.258 35.3468 193.867 35.3468C193.483 35.3468 193.096 35.3468 192.704 35.3468Z" fill="#0D1722"/>
<path d="M209.341 40.8082C207.833 40.8082 206.566 40.5082 205.541 39.9083C204.525 39.3001 203.809 38.4503 203.392 37.3589C202.975 36.2675 202.921 34.9886 203.229 33.5222C203.471 32.3641 203.908 31.3518 204.542 30.4853C205.175 29.6105 205.983 28.9315 206.966 28.4483C207.949 27.9651 209.091 27.7234 210.39 27.7234C210.907 27.7234 211.411 27.7609 211.903 27.8359C212.403 27.9109 212.882 28.0234 213.34 28.1733C213.798 28.315 214.235 28.4941 214.652 28.7107L213.715 31.935C213.315 31.6518 212.927 31.4351 212.552 31.2852C212.186 31.1352 211.832 31.0311 211.49 30.9727C211.157 30.9144 210.84 30.8853 210.54 30.8853C209.699 30.8853 208.949 31.1435 208.291 31.6601C207.641 32.1683 207.204 32.9057 206.979 33.8721C206.804 34.6803 206.82 35.3718 207.029 35.9467C207.245 36.5216 207.616 36.9631 208.141 37.2714C208.666 37.5713 209.303 37.7213 210.053 37.7213C210.378 37.7213 210.695 37.6921 211.003 37.6338C211.311 37.5755 211.607 37.488 211.89 37.3714C212.182 37.2464 212.465 37.0964 212.74 36.9215L212.265 40.1958C212.04 40.3124 211.773 40.4166 211.465 40.5082C211.165 40.5999 210.836 40.6707 210.478 40.7207C210.12 40.779 209.741 40.8082 209.341 40.8082Z" fill="#0D1722"/>
<path d="M220.948 40.8082C219.44 40.8082 218.173 40.5082 217.148 39.9083C216.132 39.3001 215.415 38.4503 214.999 37.3589C214.582 36.2675 214.528 34.9886 214.836 33.5222C215.078 32.3641 215.515 31.3518 216.149 30.4853C216.782 29.6105 217.59 28.9315 218.573 28.4483C219.556 27.9651 220.698 27.7234 221.997 27.7234C222.514 27.7234 223.018 27.7609 223.51 27.8359C224.009 27.9109 224.488 28.0234 224.947 28.1733C225.405 28.315 225.842 28.4941 226.259 28.7107L225.322 31.935C224.922 31.6518 224.534 31.4351 224.159 31.2852C223.793 31.1352 223.439 31.0311 223.097 30.9727C222.764 30.9144 222.447 30.8853 222.147 30.8853C221.306 30.8853 220.556 31.1435 219.898 31.6601C219.248 32.1683 218.811 32.9057 218.586 33.8721C218.411 34.6803 218.427 35.3718 218.636 35.9467C218.852 36.5216 219.223 36.9631 219.748 37.2714C220.273 37.5713 220.91 37.7213 221.66 37.7213C221.985 37.7213 222.301 37.6921 222.61 37.6338C222.918 37.5755 223.214 37.488 223.497 37.3714C223.789 37.2464 224.072 37.0964 224.347 36.9215L223.872 40.1958C223.647 40.3124 223.38 40.4166 223.072 40.5082C222.772 40.5999 222.443 40.6707 222.085 40.7207C221.727 40.779 221.347 40.8082 220.948 40.8082Z" fill="#0D1722"/>
<path d="M145.723 40.5241C145.44 40.0159 145.152 39.5077 144.861 38.9994C144.569 38.4829 144.282 37.9746 143.998 37.4748L142.911 35.5377H142.298L142.814 33.0632H143.461L144.998 31.3011L146.423 29.6764L147.848 28.0518H152.403L150.247 30.2888C149.539 31.0303 148.822 31.7843 148.098 32.5508L146.265 34.46L147.173 35.9626C147.656 36.7124 148.139 37.4706 148.622 38.2371C149.106 39.0036 149.589 39.7659 150.072 40.5241H145.723Z" fill="#5BC43A"/>
<path d="M109.602 57.1154L110.011 55.1659C110.12 54.6751 110.293 54.3251 110.529 54.1161C110.765 53.907 111.133 53.8025 111.633 53.8025H111.824L115.028 48.8945C115.383 48.34 115.978 48.0628 116.814 48.0628C117.632 48.0628 118.1 48.34 118.218 48.8945L119.323 53.8025H119.513C119.877 53.8025 120.15 53.8889 120.331 54.0615C120.522 54.2342 120.618 54.4751 120.618 54.7841C120.618 54.9023 120.604 55.0295 120.577 55.1659L120.168 57.1154H118.123L118.382 55.8475C118.4 55.7566 118.409 55.693 118.409 55.6567C118.409 55.4658 118.277 55.3704 118.014 55.3704H112.41C112.138 55.3704 111.965 55.5294 111.892 55.8475L111.633 57.1154H109.602ZM116.255 50.1078L113.978 53.8707H117.414L116.746 50.1078C116.719 49.9533 116.655 49.8761 116.555 49.8761C116.437 49.8761 116.337 49.9533 116.255 50.1078ZM128.063 55.3704H125.936L126.986 50.9259C126.995 50.8986 127 50.8577 127 50.8032C127 50.7486 126.977 50.7214 126.931 50.7214C126.895 50.7214 126.809 50.7895 126.672 50.9259L123.509 54.716C123.264 55.0159 122.996 55.2158 122.705 55.3158C122.414 55.4067 122.06 55.4522 121.642 55.4522C121.314 55.4522 121.055 55.3658 120.864 55.1931C120.683 55.0204 120.592 54.7978 120.592 54.5251C120.592 54.4796 120.601 54.3933 120.619 54.2661L121.914 48.1446H124.041L123.005 52.5891C122.996 52.6255 122.991 52.6664 122.991 52.7118C122.991 52.7664 123.019 52.7936 123.073 52.7936C123.109 52.7936 123.141 52.7845 123.169 52.7664C123.196 52.7482 123.228 52.7164 123.264 52.6709C123.3 52.6255 123.323 52.5982 123.332 52.5891L126.55 48.7172C126.904 48.281 127.495 48.0628 128.322 48.0628C128.667 48.0628 128.926 48.1628 129.099 48.3628C129.281 48.5536 129.372 48.7899 129.372 49.0717C129.372 49.1262 129.363 49.2171 129.344 49.3444L128.063 55.3704ZM135.24 55.3704H133.195L134.736 48.1446H136.781L135.24 55.3704ZM140.434 55.3704H138.158L136.549 52.5073C136.403 52.2438 136.331 52.0393 136.331 51.8938C136.331 51.7575 136.363 51.6212 136.426 51.4848C136.499 51.3485 136.572 51.2349 136.644 51.144C136.717 51.044 136.84 50.9031 137.012 50.7214L139.289 48.1446H141.689L138.894 51.1167C138.594 51.4257 138.444 51.6484 138.444 51.7848C138.444 51.9484 138.508 52.1347 138.635 52.3437L140.434 55.3704ZM128.014 55.3704L131.109 52.1801C131.418 51.8711 131.573 51.6484 131.573 51.5121C131.573 51.3485 131.514 51.1622 131.395 50.9531L129.828 48.1446H132.023L133.4 50.8032C133.59 51.1667 133.686 51.4257 133.686 51.5803C133.686 51.8166 133.495 52.1438 133.113 52.5619L130.55 55.3704H128.014ZM148.134 55.3704H146.008L147.057 50.9259C147.067 50.8986 147.071 50.8577 147.071 50.8032C147.071 50.7486 147.048 50.7214 147.003 50.7214C146.967 50.7214 146.88 50.7895 146.744 50.9259L143.581 54.716C143.336 55.0159 143.067 55.2158 142.777 55.3158C142.486 55.4067 142.131 55.4522 141.713 55.4522C141.386 55.4522 141.127 55.3658 140.936 55.1931C140.754 55.0204 140.663 54.7978 140.663 54.5251C140.663 54.4796 140.672 54.3933 140.691 54.2661L141.986 48.1446H144.113L143.076 52.5891C143.067 52.6255 143.063 52.6664 143.063 52.7118C143.063 52.7664 143.09 52.7936 143.145 52.7936C143.181 52.7936 143.213 52.7845 143.24 52.7664C143.267 52.7482 143.299 52.7164 143.336 52.6709C143.372 52.6255 143.395 52.5982 143.404 52.5891L146.621 48.7172C146.976 48.281 147.566 48.0628 148.394 48.0628C148.739 48.0628 148.998 48.1628 149.171 48.3628C149.352 48.5536 149.443 48.7899 149.443 49.0717C149.443 49.1262 149.434 49.2171 149.416 49.3444L148.134 55.3704ZM153.089 55.3704H150.963L152.176 49.7125H149.477L149.804 48.1446H157.329L157.002 49.7125H154.303L153.089 55.3704ZM157.656 48.1446H162.115C162.696 48.1446 163.142 48.3037 163.451 48.6218C163.76 48.9399 163.914 49.358 163.914 49.8761C163.914 50.0579 163.896 50.2442 163.86 50.435L163.11 54.007C163.01 54.4706 162.828 54.8159 162.565 55.0432C162.31 55.2613 161.937 55.3704 161.447 55.3704H157.67C157.143 55.3704 156.734 55.2113 156.443 54.8932C156.161 54.5751 156.02 54.1433 156.02 53.598C156.02 53.3526 156.043 53.0799 156.089 52.78C156.207 52.1074 156.448 51.6212 156.811 51.3212C157.184 51.0122 157.702 50.8577 158.365 50.8577H161.651L161.719 50.5441C161.737 50.4169 161.747 50.3351 161.747 50.2987C161.747 49.8806 161.492 49.6716 160.983 49.6716H157.329L157.656 48.1446ZM161.338 52.3301H159.061C158.843 52.3301 158.67 52.371 158.543 52.4528C158.425 52.5346 158.334 52.6937 158.27 52.93C158.225 53.0936 158.202 53.2481 158.202 53.3935C158.202 53.7298 158.37 53.8979 158.706 53.8979H160.52C160.838 53.8979 161.033 53.7389 161.106 53.4208L161.338 52.3301ZM169.353 55.3704L168.289 50.435C168.253 50.2805 168.217 50.2033 168.18 50.2033C168.135 50.2033 168.062 50.2805 167.962 50.435L164.99 55.3704H162.659L166.844 48.8263C167.171 48.3173 167.717 48.0628 168.48 48.0628C169.235 48.0628 169.662 48.2719 169.762 48.69L171.425 55.3704H169.353ZM186.212 48.1446L184.971 54.007C184.871 54.4887 184.694 54.8387 184.44 55.0568C184.185 55.2658 183.808 55.3704 183.308 55.3704H175.537C175.174 55.3704 174.896 55.284 174.705 55.1113C174.524 54.9386 174.433 54.6978 174.433 54.3888C174.433 54.2706 174.446 54.1433 174.474 54.007L175.714 48.1446H177.814L176.71 53.3253C176.7 53.3708 176.696 53.4253 176.696 53.4889C176.696 53.698 176.828 53.8025 177.091 53.8025H178.714L179.913 48.1446H182.013L180.813 53.8025H182.436C182.754 53.8025 182.945 53.6435 183.008 53.3253L184.113 48.1446H186.212ZM194.89 48.1446L188.55 57.7017H186.342L187.964 55.3567L186.165 48.1446H188.291L189.355 53.2708L192.627 48.1446H194.89ZM202.909 48.1446L196.569 57.7017H194.361L195.983 55.3567L194.183 48.1446H196.31L197.374 53.2708L200.646 48.1446H202.909ZM199.658 57.1154L200.067 55.1659C200.176 54.6751 200.349 54.3251 200.585 54.1161C200.822 53.907 201.19 53.8025 201.69 53.8025H201.881L205.085 48.8945C205.439 48.34 206.034 48.0628 206.871 48.0628C207.689 48.0628 208.157 48.34 208.275 48.8945L209.379 53.8025H209.57C209.934 53.8025 210.206 53.8889 210.388 54.0615C210.579 54.2342 210.674 54.4751 210.674 54.7841C210.674 54.9023 210.661 55.0295 210.633 55.1659L210.224 57.1154H208.179L208.438 55.8475C208.457 55.7566 208.466 55.693 208.466 55.6567C208.466 55.4658 208.334 55.3704 208.07 55.3704H202.467C202.194 55.3704 202.022 55.5294 201.949 55.8475L201.69 57.1154H199.658ZM206.312 50.1078L204.035 53.8707H207.47L206.802 50.1078C206.775 49.9533 206.711 49.8761 206.611 49.8761C206.493 49.8761 206.393 49.9533 206.312 50.1078ZM212.23 48.1446H216.688C217.27 48.1446 217.715 48.3037 218.024 48.6218C218.333 48.9399 218.488 49.358 218.488 49.8761C218.488 50.0579 218.469 50.2442 218.433 50.435L217.683 54.007C217.583 54.4706 217.401 54.8159 217.138 55.0432C216.883 55.2613 216.511 55.3704 216.02 55.3704H212.243C211.716 55.3704 211.307 55.2113 211.016 54.8932C210.735 54.5751 210.594 54.1433 210.594 53.598C210.594 53.3526 210.616 53.0799 210.662 52.78C210.78 52.1074 211.021 51.6212 211.384 51.3212C211.757 51.0122 212.275 50.8577 212.939 50.8577H216.224L216.293 50.5441C216.311 50.4169 216.32 50.3351 216.32 50.2987C216.32 49.8806 216.065 49.6716 215.556 49.6716H211.903L212.23 48.1446ZM215.911 52.3301H213.634C213.416 52.3301 213.243 52.371 213.116 52.4528C212.998 52.5346 212.907 52.6937 212.843 52.93C212.798 53.0936 212.775 53.2481 212.775 53.3935C212.775 53.7298 212.943 53.8979 213.28 53.8979H215.093C215.411 53.8979 215.606 53.7389 215.679 53.4208L215.911 52.3301ZM225.286 55.3704H223.159L223.787 52.4255H220.869L220.242 55.3704H218.115L219.656 48.1446H221.782L221.21 50.8577H224.127L224.7 48.1446H226.827L225.286 55.3704Z" fill="#5BC43A"/>
<defs>
<linearGradient id="paint0_linear_986_8951" x1="42.9547" y1="33.4161" x2="29.7978" y2="47.1985" gradientUnits="userSpaceOnUse">
<stop stop-color="#5BC43A"/>
<stop offset="1" stop-color="#0D1722"/>
</linearGradient>
</defs>
</svg>
